<svg width="914" height="400" fill="none" xmlns="http://www.w3.org/2000/svg"><style>#CL0 {fill: #333;}#CL1 {fill: #35D0B6;}@media (prefers-color-scheme: dark) {#CL0 {fill: #CCC;}#CL1 {fill: #35D0B6;}}</style><path d="M438.25 212.808a5.398 5.398 0 0 1-2.832-.768 5.693 5.693 0 0 1-2.016-2.016 5.46 5.46 0 0 1-.752-2.816v-3.92a.97.97 0 0 0-.4-.784 4.263 4.263 0 0 0-.864-.496 4.338 4.338 0 0 1-.848-.512.943.943 0 0 1-.368-.784c0-.341.123-.608.368-.8.245-.203.528-.373.848-.512.32-.149.608-.315.864-.496a.956.956 0 0 0 .4-.768V194.2c0-1.024.251-1.957.752-2.8a5.658 5.658 0 0 1 2.016-2.032 5.398 5.398 0 0 1 2.832-.768h1.328v2.688h-1.328a2.74 2.74 0 0 0-1.456.4 2.952 2.952 0 0 0-1.056 1.056 2.74 2.74 0 0 0-.4 1.456v4.032c-.021.395-.117.72-.288.976-.16.245-.373.48-.64.704-.267.213-.565.48-.896.8.341.341.64.624.896.848.267.213.48.437.64.672.171.224.267.544.288.96v4.016c0 .533.128 1.024.384 1.472.267.437.619.789 1.056 1.056.437.256.928.384 1.472.384h1.328v2.688h-1.328Zm36.163 0v-2.688h1.328c.533 0 1.018-.128 1.456-.384.448-.267.8-.619 1.056-1.056.266-.448.4-.939.4-1.472v-4.016c.021-.416.112-.736.272-.96.16-.235.373-.459.64-.672.266-.224.57-.507.912-.848a9.368 9.368 0 0 0-.896-.8 3.63 3.63 0 0 1-.656-.704c-.16-.256-.251-.581-.272-.976V194.2c0-.533-.134-1.019-.4-1.456a2.789 2.789 0 0 0-1.056-1.056 2.742 2.742 0 0 0-1.456-.4h-1.328V188.6h1.328c1.034 0 1.973.256 2.816.768a5.63 5.63 0 0 1 2.032 2.032c.501.843.752 1.776.752 2.8v3.936c.021.32.154.576.4.768.245.181.528.347.848.496.33.139.618.309.864.512.245.192.368.459.368.8a.943.943 0 0 1-.368.784 4.221 4.221 0 0 1-.864.512 3.86 3.86 0 0 0-.848.496 1.029 1.029 0 0 0-.4.784v3.92a5.46 5.46 0 0 1-.752 2.816 5.666 5.666 0 0 1-2.032 2.016c-.843.512-1.782.768-2.816.768h-1.328Z" id="CL0"/><path d="M450.795 211v-24h3.904v24h-3.904Zm5.269 8v-3.904c.608 0 1.157-.144 1.648-.432.49-.277.88-.661 1.168-1.152a3.08 3.08 0 0 0 .432-1.616V195h3.904v16.896c0 1.301-.32 2.491-.96 3.568a7.109 7.109 0 0 1-2.576 2.576c-1.078.64-2.283.96-3.616.96Zm5.232-26.064c-.576 0-1.062-.187-1.456-.56-.395-.384-.592-.864-.592-1.44 0-.565.197-1.04.592-1.424a1.986 1.986 0 0 1 1.44-.576c.565 0 1.04.192 1.424.576.394.384.592.859.592 1.424 0 .576-.192 1.056-.576 1.44-.384.373-.859.56-1.424.56Z" id="CL1"/></svg>